<?xml version="1.0" encoding="iso-8859-1"?>
<!-- Uploaded to: SVG Repo, www.svgrepo.com, Generator: SVG Repo Mixer Tools -->
<svg height="800px" width="800px" version="1.1" id="Capa_1" xmlns="http://www.w3.org/2000/svg" xmlns:xlink="http://www.w3.org/1999/xlink" 
	 viewBox="0 0 46.393 46.393" xml:space="preserve">
<g>
	<path style="fill:#010002;" d="M45.253,20.419l-6.858-6.861c-0.658-0.66-1.367-0.994-2.104-0.994c-1.142,0-2.37,0.892-2.37,2.849
		v2.798h-5.703v-5.756h2.745c1.957,0,2.849-1.228,2.849-2.37c0-0.736-0.334-1.444-0.994-2.105l-6.861-6.858
		c-1.471-1.471-4.043-1.471-5.518,0L13.577,7.98c-0.659,0.66-0.994,1.368-0.994,2.105c0,1.141,0.892,2.37,2.849,2.37h2.798v5.756
		h-5.755v-2.798c0-1.957-1.229-2.849-2.371-2.849c-0.737,0-1.445,0.335-2.104,0.994L1.14,20.42c-1.52,1.522-1.519,3.997,0,5.517
		L8,32.799c0.66,0.66,1.368,0.994,2.104,0.994c1.142,0,2.371-0.893,2.371-2.85v-2.746h5.755v5.704h-2.798
		c-1.957,0-2.849,1.228-2.849,2.37c0,0.737,0.334,1.445,0.994,2.105l6.862,6.858c0.736,0.735,1.716,1.14,2.759,1.14
		s2.022-0.404,2.759-1.141l6.863-6.859c0.658-0.659,0.992-1.367,0.992-2.104c0-1.141-0.892-2.37-2.849-2.37h-2.745v-5.704h5.703
		v2.746c0,1.957,1.229,2.85,2.37,2.85c0.735,0,1.444-0.334,2.104-0.994l6.858-6.862C46.773,24.416,46.773,21.942,45.253,20.419z
		 M43.839,24.523l-6.856,6.861c-0.264,0.263-0.51,0.409-0.692,0.409c-0.272,0-0.37-0.457-0.37-0.85v-4.746h-9.703v9.704h4.744
		c0.393,0,0.85,0.097,0.85,0.37c0,0.182-0.146,0.428-0.408,0.691l-6.862,6.857c-0.717,0.715-1.974,0.715-2.69,0l-6.861-6.857
		c-0.264-0.264-0.409-0.508-0.409-0.691c0-0.273,0.457-0.37,0.849-0.37v0.001h4.8v-9.703h-9.755v4.746
		c0,0.391-0.097,0.848-0.371,0.848c-0.182,0-0.427-0.145-0.69-0.407l-6.859-6.862c-0.741-0.742-0.74-1.949,0-2.691l6.859-6.861
		c0.263-0.264,0.508-0.408,0.69-0.408c0.274,0,0.371,0.457,0.371,0.849v4.798h9.755v-9.756h-4.798c-0.392,0-0.849-0.097-0.849-0.37
		c0-0.182,0.145-0.427,0.408-0.691l6.86-6.857c0.717-0.716,1.974-0.717,2.691-0.001l6.861,6.857c0.263,0.264,0.408,0.51,0.408,0.692
		c0,0.273-0.457,0.37-0.849,0.37h-4.745v9.756h9.702v-4.798c0-0.392,0.097-0.849,0.37-0.849c0.184,0,0.428,0.144,0.691,0.408
		l6.857,6.86C44.579,22.575,44.579,23.782,43.839,24.523z"/>
</g>
</svg>